<?xml version="1.0" encoding="utf-8" standalone="no"?>
<!DOCTYPE svg PUBLIC "-//W3C//DTD SVG 1.1//EN"
  "http://www.w3.org/Graphics/SVG/1.1/DTD/svg11.dtd">
<svg height="1080pt" version="1.1" viewBox="0 0 1080 1080" width="1080pt" xmlns="http://www.w3.org/2000/svg" xmlns:xlink="http://www.w3.org/1999/xlink">
 <metadata>
  <rdf:RDF xmlns:cc="http://creativecommons.org/ns#" xmlns:dc="http://purl.org/dc/elements/1.1/" xmlns:rdf="http://www.w3.org/1999/02/22-rdf-syntax-ns#">
   <cc:Work>
    <dc:type rdf:resource="http://purl.org/dc/dcmitype/StillImage"/>
    <dc:date>2021-09-05T18:58:55.643725</dc:date>
    <dc:format>image/svg+xml</dc:format>
    <dc:creator>
     <cc:Agent>
      <dc:title>Matplotlib v3.4.3, https://matplotlib.org/</dc:title>
     </cc:Agent>
    </dc:creator>
   </cc:Work>
  </rdf:RDF>
 </metadata>
 <defs>
  <style type="text/css">*{stroke-linecap:butt;stroke-linejoin:round;}</style>
 </defs>
 <g id="figure_1">
  <g id="patch_1">
   <path d="M 0 1080 
L 1080 1080 
L 1080 0 
L 0 0 
z
" style="fill:none;"/>
  </g>
  <g id="axes_1">
   <g id="patch_2">
    <path clip-path="url(#p4a869ab714)" d="M 787.752422 406.941633 
C 773.496502 375.948579 754.252572 347.502904 730.788343 322.73941 
C 707.324114 297.975917 679.955817 277.228347 649.775276 261.324398 
C 619.594735 245.420449 587.008696 234.574462 553.31714 229.219122 
C 519.625583 223.863783 485.282574 224.071266 451.658183 229.833295 
C 418.033792 235.595323 385.581179 246.834241 355.595001 263.101687 
C 325.608824 279.369133 298.493208 300.445867 275.329898 325.49106 
C 252.166588 350.536254 233.267759 379.212369 219.387355 410.375409 
C 205.506951 441.538448 196.83204 474.768424 193.708698 508.739667 
C 190.585355 542.71091 193.055674 576.965587 201.021105 610.137149 
C 208.986536 643.308712 222.339728 674.950103 240.54797 703.799029 
C 258.756213 732.647955 281.574113 758.315615 308.091378 779.778031 
C 334.608643 801.240447 364.467897 818.208367 396.477943 830.004876 
C 428.487988 841.801386 462.217422 848.267502 496.32065 849.145268 
C 530.423878 850.023033 564.441287 845.300618 597.015796 835.166417 
C 629.590305 825.032217 660.282902 809.62281 687.869146 789.552937 
C 715.455389 769.483063 739.563495 745.023207 759.231702 717.149164 
C 748.045715 711.287396 738.933155 702.118677 733.140221 690.896888 
C 727.347288 679.675098 725.150667 666.936221 726.850761 654.422376 
C 700.114443 641.332119 678.649953 619.473497 666.048288 592.503448 
C 653.446623 565.533399 650.45204 535.044775 657.56553 506.13831 
C 664.67902 477.231844 681.48046 451.614754 705.158978 433.572767 
C 728.837495 415.530779 757.994635 406.129456 787.752422 406.941633 
" style="fill:#ff0000;opacity:0.4;stroke:#ff0000;stroke-linejoin:miter;"/>
   </g>
   <g id="patch_3">
    <path clip-path="url(#p4a869ab714)" d="M 787.752422 406.941633 
C 801.900041 437.699237 810.946649 470.555853 814.536742 504.220323 
C 818.126835 537.884793 816.212763 571.910293 808.869743 604.959731 
C 818.820266 608.596784 827.663646 614.745102 834.538597 622.805879 
C 841.413547 630.866656 846.089387 640.569424 848.110722 650.969197 
C 872.973826 636.988679 892.576265 615.229434 903.895018 589.0471 
C 915.21377 562.864766 917.635458 533.678198 910.786616 505.98845 
C 903.937775 478.298702 888.189552 453.606318 865.970585 435.719275 
C 843.751618 417.832232 816.265983 407.719852 787.752422 406.941633 
" style="fill:#191970;opacity:0.4;stroke:#191970;stroke-linejoin:miter;"/>
   </g>
   <g id="patch_4">
    <path clip-path="url(#p4a869ab714)" d="M 787.752422 406.941633 
C 757.994635 406.129456 728.837495 415.530779 705.158978 433.572767 
C 681.48046 451.614754 664.67902 477.231844 657.56553 506.13831 
C 650.45204 535.044775 653.446623 565.533399 666.048288 592.503448 
C 678.649953 619.473497 700.114443 641.332119 726.850761 654.422376 
C 728.08769 645.317735 731.350266 636.605184 736.397791 628.927491 
C 741.445316 621.249799 748.150533 614.800533 756.018764 610.055492 
C 763.886994 605.31045 772.719866 602.389263 781.865732 601.507441 
C 791.011598 600.625619 800.239874 601.805395 808.869743 604.959731 
C 816.212763 571.910293 818.126835 537.884793 814.536742 504.220323 
C 810.946649 470.555853 801.900041 437.699237 787.752422 406.941633 
" style="fill:#b25900;opacity:0.4;"/>
   </g>
   <g id="patch_5">
    <path clip-path="url(#p4a869ab714)" d="M 759.231702 717.149164 
C 769.487049 722.523251 781.054978 724.892321 792.597285 723.982315 
C 804.139593 723.072309 815.193349 718.919726 824.479831 712.004943 
C 833.766313 705.090161 840.913067 695.690513 845.09334 684.89337 
C 849.273613 674.096228 850.319747 662.334635 848.110722 650.969197 
C 838.912148 656.141553 829.119638 660.178259 818.948237 662.990668 
C 808.776837 665.803077 798.301552 667.37045 787.752422 667.658367 
C 783.767842 676.321036 779.388176 684.79646 774.627224 693.05794 
C 769.866271 701.319419 764.729035 709.358269 759.231702 717.149164 
" style="fill:#008000;opacity:0.4;stroke:#008000;stroke-linejoin:miter;"/>
   </g>
   <g id="patch_6">
    <path clip-path="url(#p4a869ab714)" d="M 759.231702 717.149164 
C 764.729035 709.358269 769.866271 701.319419 774.627224 693.05794 
C 779.388176 684.79646 783.767842 676.321036 787.752422 667.658367 
C 777.254912 667.944874 766.761121 666.96232 756.499261 664.73207 
C 746.2374 662.501821 736.282402 659.040162 726.850761 654.422376 
C 725.150667 666.936221 727.347288 679.675098 733.140221 690.896888 
C 738.933155 702.118677 748.045715 711.287396 759.231702 717.149164 
" style="fill:#b200b2;opacity:0.4;"/>
   </g>
   <g id="patch_7">
    <path clip-path="url(#p4a869ab714)" d="M 808.869743 604.959731 
C 806.473082 615.746617 803.504968 626.398545 799.977956 636.870463 
C 796.450943 647.342381 792.370012 657.619505 787.752422 667.658367 
C 798.301552 667.37045 808.776837 665.803077 818.948237 662.990668 
C 829.119638 660.178259 838.912148 656.141553 848.110722 650.969197 
C 846.089387 640.569424 841.413547 630.866656 834.538597 622.805879 
C 827.663646 614.745102 818.820266 608.596784 808.869743 604.959731 
" style="fill:#0059b2;opacity:0.4;"/>
   </g>
   <g id="patch_8">
    <path clip-path="url(#p4a869ab714)" d="M 726.850761 654.422376 
C 736.282402 659.040162 746.2374 662.501821 756.499261 664.73207 
C 766.761121 666.96232 777.254912 667.944874 787.752422 667.658367 
C 792.370012 657.619505 796.450943 647.342381 799.977956 636.870463 
C 803.504968 626.398545 806.473082 615.746617 808.869743 604.959731 
C 800.239874 601.805395 791.011598 600.625619 781.865732 601.507441 
C 772.719866 602.389263 763.886994 605.31045 756.018764 610.055492 
C 748.150533 614.800533 741.445316 621.249799 736.397791 628.927491 
C 731.350266 636.605184 728.08769 645.317735 726.850761 654.422376 
" style="fill:#663366;opacity:0.4;"/>
   </g>
   <g id="text_1">
    <!-- 91 -->
    <g transform="translate(392.646776 536.67089)scale(0.16 -0.16)">
     <defs>
      <path d="M 703 97 
L 703 672 
Q 941 559 1184 500 
Q 1428 441 1663 441 
Q 2288 441 2617 861 
Q 2947 1281 2994 2138 
Q 2813 1869 2534 1725 
Q 2256 1581 1919 1581 
Q 1219 1581 811 2004 
Q 403 2428 403 3163 
Q 403 3881 828 4315 
Q 1253 4750 1959 4750 
Q 2769 4750 3195 4129 
Q 3622 3509 3622 2328 
Q 3622 1225 3098 567 
Q 2575 -91 1691 -91 
Q 1453 -91 1209 -44 
Q 966 3 703 97 
z
M 1959 2075 
Q 2384 2075 2632 2365 
Q 2881 2656 2881 3163 
Q 2881 3666 2632 3958 
Q 2384 4250 1959 4250 
Q 1534 4250 1286 3958 
Q 1038 3666 1038 3163 
Q 1038 2656 1286 2365 
Q 1534 2075 1959 2075 
z
" id="DejaVuSans-39" transform="scale(0.015625)"/>
      <path d="M 794 531 
L 1825 531 
L 1825 4091 
L 703 3866 
L 703 4441 
L 1819 4666 
L 2450 4666 
L 2450 531 
L 3481 531 
L 3481 0 
L 794 0 
L 794 531 
z
" id="DejaVuSans-31" transform="scale(0.015625)"/>
     </defs>
     <use xlink:href="#DejaVuSans-39"/>
     <use x="63.623047" xlink:href="#DejaVuSans-31"/>
    </g>
   </g>
   <g id="text_2">
    <!-- 6 -->
    <g transform="translate(872.765701 538.202529)scale(0.16 -0.16)">
     <defs>
      <path d="M 2113 2584 
Q 1688 2584 1439 2293 
Q 1191 2003 1191 1497 
Q 1191 994 1439 701 
Q 1688 409 2113 409 
Q 2538 409 2786 701 
Q 3034 994 3034 1497 
Q 3034 2003 2786 2293 
Q 2538 2584 2113 2584 
z
M 3366 4563 
L 3366 3988 
Q 3128 4100 2886 4159 
Q 2644 4219 2406 4219 
Q 1781 4219 1451 3797 
Q 1122 3375 1075 2522 
Q 1259 2794 1537 2939 
Q 1816 3084 2150 3084 
Q 2853 3084 3261 2657 
Q 3669 2231 3669 1497 
Q 3669 778 3244 343 
Q 2819 -91 2113 -91 
Q 1303 -91 875 529 
Q 447 1150 447 2328 
Q 447 3434 972 4092 
Q 1497 4750 2381 4750 
Q 2619 4750 2861 4703 
Q 3103 4656 3366 4563 
z
" id="DejaVuSans-36" transform="scale(0.015625)"/>
     </defs>
     <use xlink:href="#DejaVuSans-36"/>
    </g>
   </g>
   <g id="text_3">
    <!-- 10 -->
    <g transform="translate(701.341628 546.356645)scale(0.16 -0.16)">
     <defs>
      <path d="M 2034 4250 
Q 1547 4250 1301 3770 
Q 1056 3291 1056 2328 
Q 1056 1369 1301 889 
Q 1547 409 2034 409 
Q 2525 409 2770 889 
Q 3016 1369 3016 2328 
Q 3016 3291 2770 3770 
Q 2525 4250 2034 4250 
z
M 2034 4750 
Q 2819 4750 3233 4129 
Q 3647 3509 3647 2328 
Q 3647 1150 3233 529 
Q 2819 -91 2034 -91 
Q 1250 -91 836 529 
Q 422 1150 422 2328 
Q 422 3509 836 4129 
Q 1250 4750 2034 4750 
z
" id="DejaVuSans-30" transform="scale(0.015625)"/>
     </defs>
     <use xlink:href="#DejaVuSans-31"/>
     <use x="63.623047" xlink:href="#DejaVuSans-30"/>
    </g>
   </g>
   <g id="text_4">
    <!-- 1 -->
    <g transform="translate(815.331914 707.06993)scale(0.16 -0.16)">
     <use xlink:href="#DejaVuSans-31"/>
    </g>
   </g>
   <g id="text_5">
    <!-- 1 -->
    <g transform="translate(738.044443 688.837637)scale(0.16 -0.16)">
     <use xlink:href="#DejaVuSans-31"/>
    </g>
   </g>
   <g id="text_6">
    <!-- 1 -->
    <g transform="translate(820.812689 640.244244)scale(0.16 -0.16)">
     <use xlink:href="#DejaVuSans-31"/>
    </g>
   </g>
   <g id="text_7">
    <!-- 1 -->
    <g transform="translate(754.786677 627.400922)scale(0.16 -0.16)">
     <use xlink:href="#DejaVuSans-31"/>
    </g>
   </g>
   <g id="text_8">
    <!-- $M. incognita$ -->
    <g transform="translate(228.372803 225.351456)scale(0.2 -0.2)">
     <defs>
      <path d="M 1081 4666 
L 2028 4666 
L 2572 1522 
L 4378 4666 
L 5350 4666 
L 4441 0 
L 3828 0 
L 4622 4091 
L 2791 897 
L 2175 897 
L 1581 4103 
L 788 0 
L 172 0 
L 1081 4666 
z
" id="DejaVuSans-Oblique-4d" transform="scale(0.015625)"/>
      <path d="M 684 794 
L 1344 794 
L 1344 0 
L 684 0 
L 684 794 
z
" id="DejaVuSans-2e" transform="scale(0.015625)"/>
      <path d="M 1172 4863 
L 1747 4863 
L 1606 4134 
L 1031 4134 
L 1172 4863 
z
M 909 3500 
L 1484 3500 
L 800 0 
L 225 0 
L 909 3500 
z
" id="DejaVuSans-Oblique-69" transform="scale(0.015625)"/>
      <path d="M 3566 2113 
L 3156 0 
L 2578 0 
L 2988 2091 
Q 3016 2238 3031 2350 
Q 3047 2463 3047 2528 
Q 3047 2791 2881 2937 
Q 2716 3084 2419 3084 
Q 1956 3084 1622 2776 
Q 1288 2469 1184 1941 
L 800 0 
L 225 0 
L 903 3500 
L 1478 3500 
L 1363 2950 
Q 1603 3253 1940 3418 
Q 2278 3584 2650 3584 
Q 3113 3584 3367 3334 
Q 3622 3084 3622 2631 
Q 3622 2519 3608 2391 
Q 3594 2263 3566 2113 
z
" id="DejaVuSans-Oblique-6e" transform="scale(0.015625)"/>
      <path d="M 3431 3366 
L 3316 2797 
Q 3109 2947 2876 3022 
Q 2644 3097 2394 3097 
Q 2119 3097 1870 3000 
Q 1622 2903 1453 2725 
Q 1184 2453 1037 2087 
Q 891 1722 891 1331 
Q 891 859 1127 628 
Q 1363 397 1844 397 
Q 2081 397 2348 469 
Q 2616 541 2906 684 
L 2797 116 
Q 2547 13 2283 -39 
Q 2019 -91 1741 -91 
Q 1044 -91 669 257 
Q 294 606 294 1253 
Q 294 1797 489 2255 
Q 684 2713 1069 3078 
Q 1331 3328 1684 3456 
Q 2038 3584 2456 3584 
Q 2700 3584 2940 3529 
Q 3181 3475 3431 3366 
z
" id="DejaVuSans-Oblique-63" transform="scale(0.015625)"/>
      <path d="M 1625 -91 
Q 1009 -91 651 289 
Q 294 669 294 1325 
Q 294 1706 417 2101 
Q 541 2497 738 2766 
Q 1047 3184 1428 3384 
Q 1809 3584 2291 3584 
Q 2888 3584 3255 3212 
Q 3622 2841 3622 2241 
Q 3622 1825 3500 1412 
Q 3378 1000 3181 728 
Q 2875 309 2494 109 
Q 2113 -91 1625 -91 
z
M 891 1344 
Q 891 869 1089 633 
Q 1288 397 1691 397 
Q 2269 397 2648 901 
Q 3028 1406 3028 2181 
Q 3028 2634 2825 2865 
Q 2622 3097 2228 3097 
Q 1903 3097 1650 2945 
Q 1397 2794 1197 2484 
Q 1050 2253 970 1956 
Q 891 1659 891 1344 
z
" id="DejaVuSans-Oblique-6f" transform="scale(0.015625)"/>
      <path d="M 3816 3500 
L 3219 434 
Q 3047 -456 2561 -893 
Q 2075 -1331 1253 -1331 
Q 950 -1331 690 -1286 
Q 431 -1241 206 -1147 
L 313 -588 
Q 525 -725 762 -790 
Q 1000 -856 1269 -856 
Q 1816 -856 2167 -557 
Q 2519 -259 2631 300 
L 2681 563 
Q 2441 288 2122 144 
Q 1803 0 1434 0 
Q 903 0 598 351 
Q 294 703 294 1319 
Q 294 1803 478 2267 
Q 663 2731 997 3091 
Q 1219 3328 1514 3456 
Q 1809 3584 2131 3584 
Q 2484 3584 2746 3420 
Q 3009 3256 3138 2956 
L 3238 3500 
L 3816 3500 
z
M 2950 2216 
Q 2950 2641 2750 2872 
Q 2550 3103 2181 3103 
Q 1953 3103 1747 3012 
Q 1541 2922 1394 2759 
Q 1156 2491 1023 2127 
Q 891 1763 891 1375 
Q 891 944 1092 712 
Q 1294 481 1672 481 
Q 2219 481 2584 976 
Q 2950 1472 2950 2216 
z
" id="DejaVuSans-Oblique-67" transform="scale(0.015625)"/>
      <path d="M 2706 3500 
L 2619 3053 
L 1472 3053 
L 1100 1153 
Q 1081 1047 1072 975 
Q 1063 903 1063 863 
Q 1063 663 1183 572 
Q 1303 481 1569 481 
L 2150 481 
L 2053 0 
L 1503 0 
Q 991 0 739 200 
Q 488 400 488 806 
Q 488 878 497 964 
Q 506 1050 525 1153 
L 897 3053 
L 409 3053 
L 500 3500 
L 978 3500 
L 1172 4494 
L 1747 4494 
L 1556 3500 
L 2706 3500 
z
" id="DejaVuSans-Oblique-74" transform="scale(0.015625)"/>
      <path d="M 3438 1997 
L 3047 0 
L 2472 0 
L 2578 531 
Q 2325 219 2001 64 
Q 1678 -91 1281 -91 
Q 834 -91 548 182 
Q 263 456 263 884 
Q 263 1497 752 1853 
Q 1241 2209 2100 2209 
L 2900 2209 
L 2931 2363 
Q 2938 2388 2941 2417 
Q 2944 2447 2944 2509 
Q 2944 2788 2717 2942 
Q 2491 3097 2081 3097 
Q 1800 3097 1504 3025 
Q 1209 2953 897 2809 
L 997 3341 
Q 1322 3463 1633 3523 
Q 1944 3584 2234 3584 
Q 2853 3584 3176 3315 
Q 3500 3047 3500 2534 
Q 3500 2431 3484 2292 
Q 3469 2153 3438 1997 
z
M 2816 1759 
L 2241 1759 
Q 1534 1759 1195 1570 
Q 856 1381 856 984 
Q 856 709 1029 553 
Q 1203 397 1509 397 
Q 1978 397 2328 733 
Q 2678 1069 2791 1631 
L 2816 1759 
z
" id="DejaVuSans-Oblique-61" transform="scale(0.015625)"/>
     </defs>
     <use transform="translate(0 0.015625)" xlink:href="#DejaVuSans-Oblique-4d"/>
     <use transform="translate(86.279297 0.015625)" xlink:href="#DejaVuSans-2e"/>
     <use transform="translate(137.548828 0.015625)" xlink:href="#DejaVuSans-Oblique-69"/>
     <use transform="translate(165.332031 0.015625)" xlink:href="#DejaVuSans-Oblique-6e"/>
     <use transform="translate(228.710938 0.015625)" xlink:href="#DejaVuSans-Oblique-63"/>
     <use transform="translate(283.691406 0.015625)" xlink:href="#DejaVuSans-Oblique-6f"/>
     <use transform="translate(344.873047 0.015625)" xlink:href="#DejaVuSans-Oblique-67"/>
     <use transform="translate(408.349609 0.015625)" xlink:href="#DejaVuSans-Oblique-6e"/>
     <use transform="translate(471.728516 0.015625)" xlink:href="#DejaVuSans-Oblique-69"/>
     <use transform="translate(499.511719 0.015625)" xlink:href="#DejaVuSans-Oblique-74"/>
     <use transform="translate(538.720703 0.015625)" xlink:href="#DejaVuSans-Oblique-61"/>
    </g>
   </g>
   <g id="text_9">
    <!-- $M. arenaria$ -->
    <g transform="translate(849.398014 406.89309)scale(0.2 -0.2)">
     <defs>
      <path d="M 2853 2969 
Q 2766 3016 2653 3041 
Q 2541 3066 2413 3066 
Q 1953 3066 1609 2717 
Q 1266 2369 1153 1784 
L 800 0 
L 225 0 
L 909 3500 
L 1484 3500 
L 1375 2956 
Q 1603 3259 1920 3421 
Q 2238 3584 2597 3584 
Q 2691 3584 2781 3573 
Q 2872 3563 2963 3538 
L 2853 2969 
z
" id="DejaVuSans-Oblique-72" transform="scale(0.015625)"/>
      <path d="M 3078 2063 
Q 3088 2113 3092 2166 
Q 3097 2219 3097 2272 
Q 3097 2653 2873 2875 
Q 2650 3097 2266 3097 
Q 1838 3097 1509 2826 
Q 1181 2556 1013 2059 
L 3078 2063 
z
M 3578 1613 
L 903 1613 
Q 884 1494 878 1425 
Q 872 1356 872 1306 
Q 872 872 1139 634 
Q 1406 397 1894 397 
Q 2269 397 2603 481 
Q 2938 566 3225 728 
L 3116 159 
Q 2806 34 2476 -28 
Q 2147 -91 1806 -91 
Q 1078 -91 686 257 
Q 294 606 294 1247 
Q 294 1794 489 2264 
Q 684 2734 1063 3103 
Q 1306 3334 1642 3459 
Q 1978 3584 2356 3584 
Q 2950 3584 3301 3228 
Q 3653 2872 3653 2272 
Q 3653 2128 3634 1964 
Q 3616 1800 3578 1613 
z
" id="DejaVuSans-Oblique-65" transform="scale(0.015625)"/>
     </defs>
     <use transform="translate(0 0.015625)" xlink:href="#DejaVuSans-Oblique-4d"/>
     <use transform="translate(86.279297 0.015625)" xlink:href="#DejaVuSans-2e"/>
     <use transform="translate(137.548828 0.015625)" xlink:href="#DejaVuSans-Oblique-61"/>
     <use transform="translate(198.828125 0.015625)" xlink:href="#DejaVuSans-Oblique-72"/>
     <use transform="translate(239.941406 0.015625)" xlink:href="#DejaVuSans-Oblique-65"/>
     <use transform="translate(301.464844 0.015625)" xlink:href="#DejaVuSans-Oblique-6e"/>
     <use transform="translate(364.84375 0.015625)" xlink:href="#DejaVuSans-Oblique-61"/>
     <use transform="translate(426.123047 0.015625)" xlink:href="#DejaVuSans-Oblique-72"/>
     <use transform="translate(467.236328 0.015625)" xlink:href="#DejaVuSans-Oblique-69"/>
     <use transform="translate(495.019531 0.015625)" xlink:href="#DejaVuSans-Oblique-61"/>
    </g>
   </g>
   <g id="text_10">
    <!-- $M. javanica$ -->
    <g transform="translate(732.265582 745.519929)scale(0.2 -0.2)">
     <defs>
      <path d="M 928 3500 
L 1503 3500 
L 813 -63 
L 809 -78 
Q 694 -675 544 -897 
Q 403 -1106 132 -1218 
Q -138 -1331 -506 -1331 
L -722 -1331 
L -628 -844 
L -481 -844 
Q -144 -844 -1 -703 
Q 141 -563 238 -63 
L 928 3500 
z
M 1197 4863 
L 1772 4863 
L 1631 4134 
L 1056 4134 
L 1197 4863 
z
" id="DejaVuSans-Oblique-6a" transform="scale(0.015625)"/>
      <path d="M 459 3500 
L 1069 3500 
L 1581 525 
L 3256 3500 
L 3866 3500 
L 1875 0 
L 1100 0 
L 459 3500 
z
" id="DejaVuSans-Oblique-76" transform="scale(0.015625)"/>
     </defs>
     <use transform="translate(0 0.015625)" xlink:href="#DejaVuSans-Oblique-4d"/>
     <use transform="translate(86.279297 0.015625)" xlink:href="#DejaVuSans-2e"/>
     <use transform="translate(137.548828 0.015625)" xlink:href="#DejaVuSans-Oblique-6a"/>
     <use transform="translate(165.332031 0.015625)" xlink:href="#DejaVuSans-Oblique-61"/>
     <use transform="translate(226.611328 0.015625)" xlink:href="#DejaVuSans-Oblique-76"/>
     <use transform="translate(285.791016 0.015625)" xlink:href="#DejaVuSans-Oblique-61"/>
     <use transform="translate(347.070312 0.015625)" xlink:href="#DejaVuSans-Oblique-6e"/>
     <use transform="translate(410.449219 0.015625)" xlink:href="#DejaVuSans-Oblique-69"/>
     <use transform="translate(438.232422 0.015625)" xlink:href="#DejaVuSans-Oblique-63"/>
     <use transform="translate(493.212891 0.015625)" xlink:href="#DejaVuSans-Oblique-61"/>
    </g>
   </g>
  </g>
 </g>
 <defs>
  <clipPath id="p4a869ab714">
   <rect height="738.694151" width="837" x="135" y="167.952925"/>
  </clipPath>
 </defs>
</svg>
