<?xml version="1.0" encoding="utf-8" standalone="no"?>
<!DOCTYPE svg PUBLIC "-//W3C//DTD SVG 1.1//EN"
  "http://www.w3.org/Graphics/SVG/1.1/DTD/svg11.dtd">
<svg height="1440pt" version="1.1" viewBox="0 0 1440 1440" width="1440pt" xmlns="http://www.w3.org/2000/svg" xmlns:xlink="http://www.w3.org/1999/xlink">
 <metadata>
  <rdf:RDF xmlns:cc="http://creativecommons.org/ns#" xmlns:dc="http://purl.org/dc/elements/1.1/" xmlns:rdf="http://www.w3.org/1999/02/22-rdf-syntax-ns#">
   <cc:Work>
    <dc:type rdf:resource="http://purl.org/dc/dcmitype/StillImage"/>
    <dc:date>2021-09-05T19:25:09.004784</dc:date>
    <dc:format>image/svg+xml</dc:format>
    <dc:creator>
     <cc:Agent>
      <dc:title>Matplotlib v3.4.3, https://matplotlib.org/</dc:title>
     </cc:Agent>
    </dc:creator>
   </cc:Work>
  </rdf:RDF>
 </metadata>
 <defs>
  <style type="text/css">*{stroke-linecap:butt;stroke-linejoin:round;}</style>
 </defs>
 <g id="figure_1">
  <g id="patch_1">
   <path d="M 0 1440 
L 1440 1440 
L 1440 0 
L 0 0 
z
" style="fill:none;"/>
  </g>
  <g id="axes_1">
   <g id="patch_2">
    <path clip-path="url(#pe340f0019c)" d="M 1178.989214 464.578589 
C 1151.056468 403.851458 1113.35032 348.115605 1067.375009 299.594543 
C 1021.399698 251.073481 967.774839 210.421133 908.639728 179.259275 
C 849.504618 148.097416 785.656227 126.846018 719.641708 116.35288 
C 653.627188 105.859742 586.336226 106.26628 520.453309 117.556276 
C 454.570392 128.846272 390.983434 150.86757 332.229155 182.741657 
C 273.474875 214.615744 220.345115 255.913049 174.959418 304.986068 
C 129.573721 354.059088 92.543756 410.246458 65.346788 471.306655 
C 38.149819 532.366852 21.152384 597.476959 15.032573 664.039491 
C 8.912763 730.602023 13.753054 797.719907 29.36035 862.715561 
C 44.967646 927.711215 71.131605 989.708684 106.808449 1046.234656 
C 142.485293 1102.760629 187.1942 1153.053297 239.151565 1195.106298 
C 291.108931 1237.159299 349.614518 1270.40588 412.33432 1293.51971 
C 475.054123 1316.63354 541.142857 1329.30311 607.963997 1331.022985 
C 674.785137 1332.74286 741.438126 1323.489861 805.263925 1303.633124 
C 869.089725 1283.776386 929.228148 1253.583523 983.280047 1214.25904 
C 1037.331945 1174.934557 1084.568856 1127.008435 1123.106321 1072.392627 
C 1101.188736 1060.907203 1083.33378 1042.942211 1071.983229 1020.954475 
C 1060.632679 998.96674 1056.328667 974.006454 1059.659795 949.487093 
C 1007.273223 923.838321 965.216156 881.009003 940.524722 828.164462 
C 915.833288 775.319922 909.965764 715.581161 923.903785 658.942447 
C 937.841806 602.303732 970.762191 552.110151 1017.157376 516.759065 
C 1063.55256 481.407979 1120.68244 462.987226 1178.989214 464.578589 
" style="fill:#ff0000;opacity:0.4;stroke:#ff0000;stroke-linejoin:miter;"/>
   </g>
   <g id="patch_3">
    <path clip-path="url(#pe340f0019c)" d="M 1178.989214 464.578589 
C 1206.709759 524.844382 1224.435489 589.222939 1231.469841 655.184384 
C 1238.504193 721.14583 1234.753801 787.814673 1220.366044 852.571038 
C 1239.862888 859.697403 1257.190418 871.744286 1270.661049 887.538401 
C 1284.131681 903.332517 1293.293423 922.343913 1297.253984 942.721006 
C 1345.97022 915.327878 1384.378823 872.693277 1406.556546 821.392168 
C 1428.734269 770.09106 1433.479273 712.903517 1420.059798 658.648814 
C 1406.640324 604.394111 1375.78359 556.012378 1332.248219 520.964887 
C 1288.712848 485.917396 1234.858079 466.103414 1178.989214 464.578589 
" style="fill:#191970;opacity:0.4;stroke:#191970;stroke-linejoin:miter;"/>
   </g>
   <g id="patch_4">
    <path clip-path="url(#pe340f0019c)" d="M 1178.989214 464.578589 
C 1120.68244 462.987226 1063.55256 481.407979 1017.157376 516.759065 
C 970.762191 552.110151 937.841806 602.303732 923.903785 658.942447 
C 909.965764 715.581161 915.833288 775.319922 940.524722 828.164462 
C 965.216156 881.009003 1007.273223 923.838321 1059.659795 949.487093 
C 1062.083407 931.647654 1068.476029 914.576465 1078.366042 899.532957 
C 1088.256055 884.48945 1101.394115 871.852897 1116.810959 862.555563 
C 1132.227802 853.258229 1149.534743 847.534517 1167.454958 845.806694 
C 1185.375173 844.078872 1203.456862 846.3905 1220.366044 852.571038 
C 1234.753801 787.814673 1238.504193 721.14583 1231.469841 655.184384 
C 1224.435489 589.222939 1206.709759 524.844382 1178.989214 464.578589 
" style="fill:#b25900;opacity:0.4;"/>
   </g>
   <g id="patch_5">
    <path clip-path="url(#pe340f0019c)" d="M 1123.106321 1072.392627 
C 1143.200431 1082.922499 1165.866385 1087.564404 1188.482136 1085.781358 
C 1211.097888 1083.998312 1232.756382 1075.861828 1250.952118 1062.31315 
C 1269.147854 1048.764472 1283.151051 1030.347002 1291.341789 1009.191311 
C 1299.532528 988.035619 1301.5823 964.990204 1297.253984 942.721006 
C 1279.230494 952.855611 1260.043257 960.765047 1240.113631 966.275622 
C 1220.184006 971.786196 1199.658954 974.857273 1178.989214 975.421411 
C 1171.181912 992.394861 1162.600489 1009.001428 1153.271979 1025.188795 
C 1143.94347 1041.376162 1133.87768 1057.127314 1123.106321 1072.392627 
" style="fill:#008000;opacity:0.4;stroke:#008000;stroke-linejoin:miter;"/>
   </g>
   <g id="patch_6">
    <path clip-path="url(#pe340f0019c)" d="M 1123.106321 1072.392627 
C 1133.87768 1057.127314 1143.94347 1041.376162 1153.271979 1025.188795 
C 1162.600489 1009.001428 1171.181912 992.394861 1178.989214 975.421411 
C 1158.420617 975.982789 1137.859306 974.057592 1117.752434 969.687689 
C 1097.645562 965.317785 1078.139951 958.535085 1059.659795 949.487093 
C 1056.328667 974.006454 1060.632679 998.96674 1071.983229 1020.954475 
C 1083.33378 1042.942211 1101.188736 1060.907203 1123.106321 1072.392627 
" style="fill:#b200b2;opacity:0.4;"/>
   </g>
   <g id="patch_7">
    <path clip-path="url(#pe340f0019c)" d="M 1220.366044 852.571038 
C 1215.670076 873.706632 1209.854417 894.577794 1202.943664 915.096247 
C 1196.032912 935.614701 1188.036822 955.751479 1178.989214 975.421411 
C 1199.658954 974.857273 1220.184006 971.786196 1240.113631 966.275622 
C 1260.043257 960.765047 1279.230494 952.855611 1297.253984 942.721006 
C 1293.293423 922.343913 1284.131681 903.332517 1270.661049 887.538401 
C 1257.190418 871.744286 1239.862888 859.697403 1220.366044 852.571038 
" style="fill:#0059b2;opacity:0.4;"/>
   </g>
   <g id="patch_8">
    <path clip-path="url(#pe340f0019c)" d="M 1059.659795 949.487093 
C 1078.139951 958.535085 1097.645562 965.317785 1117.752434 969.687689 
C 1137.859306 974.057592 1158.420617 975.982789 1178.989214 975.421411 
C 1188.036822 955.751479 1196.032912 935.614701 1202.943664 915.096247 
C 1209.854417 894.577794 1215.670076 873.706632 1220.366044 852.571038 
C 1203.456862 846.3905 1185.375173 844.078872 1167.454958 845.806694 
C 1149.534743 847.534517 1132.227802 853.258229 1116.810959 862.555563 
C 1101.394115 871.852897 1088.256055 884.48945 1078.366042 899.532957 
C 1068.476029 914.576465 1062.083407 931.647654 1059.659795 949.487093 
" style="fill:#663366;opacity:0.4;"/>
   </g>
   <g id="patch_9">
    <path clip-path="url(#pe340f0019c)" d="M 623.690805 1331.225344 
C 785.789661 1331.225344 941.27119 1266.822786 1055.89239 1152.201586 
C 1170.513591 1037.580385 1234.916149 882.098856 1234.916149 720 
C 1234.916149 557.901144 1170.513591 402.419615 1055.89239 287.798414 
C 941.27119 173.177214 785.789661 108.774656 623.690805 108.774656 
C 461.591949 108.774656 306.11042 173.177214 191.489219 287.798414 
C 76.868019 402.419615 12.465461 557.901144 12.465461 720 
C 12.465461 882.098856 76.868019 1037.580385 191.489219 1152.201586 
C 306.11042 1266.822786 461.591949 1331.225344 623.690805 1331.225344 
z
" style="fill:none;stroke:#000000;stroke-linejoin:miter;stroke-width:0.5;"/>
   </g>
   <g id="patch_10">
    <path clip-path="url(#pe340f0019c)" d="M 1172.018013 975.516526 
C 1239.781788 975.516526 1304.779257 948.593693 1352.695482 900.677468 
C 1400.611706 852.761243 1427.534539 787.763775 1427.534539 720 
C 1427.534539 652.236225 1400.611706 587.238757 1352.695482 539.322532 
C 1304.779257 491.406307 1239.781788 464.483474 1172.018013 464.483474 
C 1104.254239 464.483474 1039.25677 491.406307 991.340545 539.322532 
C 943.424321 587.238757 916.501488 652.236225 916.501488 720 
C 916.501488 787.763775 943.424321 852.761243 991.340545 900.677468 
C 1039.25677 948.593693 1104.254239 975.516526 1172.018013 975.516526 
z
" style="fill:none;stroke:#000000;stroke-linejoin:miter;stroke-width:0.5;"/>
   </g>
   <g id="patch_11">
    <path clip-path="url(#pe340f0019c)" d="M 1179.014999 1086.153979 
C 1210.959149 1086.153979 1241.599249 1073.462434 1264.187174 1050.874509 
C 1286.775099 1028.286584 1299.466644 997.646483 1299.466644 965.702334 
C 1299.466644 933.758184 1286.775099 903.118083 1264.187174 880.530158 
C 1241.599249 857.942234 1210.959149 845.250688 1179.014999 845.250688 
C 1147.070849 845.250688 1116.430749 857.942234 1093.842824 880.530158 
C 1071.254899 903.118083 1058.563354 933.758184 1058.563354 965.702334 
C 1058.563354 997.646483 1071.254899 1028.286584 1093.842824 1050.874509 
C 1116.430749 1073.462434 1147.070849 1086.153979 1179.014999 1086.153979 
z
" style="fill:none;stroke:#000000;stroke-linejoin:miter;stroke-width:0.5;"/>
   </g>
   <g id="text_1">
    <!-- 91 -->
    <g transform="translate(412.049089 715.635428)scale(0.2 -0.2)">
     <defs>
      <path d="M 703 97 
L 703 672 
Q 941 559 1184 500 
Q 1428 441 1663 441 
Q 2288 441 2617 861 
Q 2947 1281 2994 2138 
Q 2813 1869 2534 1725 
Q 2256 1581 1919 1581 
Q 1219 1581 811 2004 
Q 403 2428 403 3163 
Q 403 3881 828 4315 
Q 1253 4750 1959 4750 
Q 2769 4750 3195 4129 
Q 3622 3509 3622 2328 
Q 3622 1225 3098 567 
Q 2575 -91 1691 -91 
Q 1453 -91 1209 -44 
Q 966 3 703 97 
z
M 1959 2075 
Q 2384 2075 2632 2365 
Q 2881 2656 2881 3163 
Q 2881 3666 2632 3958 
Q 2384 4250 1959 4250 
Q 1534 4250 1286 3958 
Q 1038 3666 1038 3163 
Q 1038 2656 1286 2365 
Q 1534 2075 1959 2075 
z
" id="DejaVuSans-39" transform="scale(0.015625)"/>
      <path d="M 794 531 
L 1825 531 
L 1825 4091 
L 703 3866 
L 703 4441 
L 1819 4666 
L 2450 4666 
L 2450 531 
L 3481 531 
L 3481 0 
L 794 0 
L 794 531 
z
" id="DejaVuSans-31" transform="scale(0.015625)"/>
     </defs>
     <use xlink:href="#DejaVuSans-39"/>
     <use x="63.623047" xlink:href="#DejaVuSans-31"/>
    </g>
   </g>
   <g id="text_2">
    <!-- 6 -->
    <g transform="translate(1349.173163 718.636489)scale(0.2 -0.2)">
     <defs>
      <path d="M 2113 2584 
Q 1688 2584 1439 2293 
Q 1191 2003 1191 1497 
Q 1191 994 1439 701 
Q 1688 409 2113 409 
Q 2538 409 2786 701 
Q 3034 994 3034 1497 
Q 3034 2003 2786 2293 
Q 2538 2584 2113 2584 
z
M 3366 4563 
L 3366 3988 
Q 3128 4100 2886 4159 
Q 2644 4219 2406 4219 
Q 1781 4219 1451 3797 
Q 1122 3375 1075 2522 
Q 1259 2794 1537 2939 
Q 1816 3084 2150 3084 
Q 2853 3084 3261 2657 
Q 3669 2231 3669 1497 
Q 3669 778 3244 343 
Q 2819 -91 2113 -91 
Q 1303 -91 875 529 
Q 447 1150 447 2328 
Q 447 3434 972 4092 
Q 1497 4750 2381 4750 
Q 2619 4750 2861 4703 
Q 3103 4656 3366 4563 
z
" id="DejaVuSans-36" transform="scale(0.015625)"/>
     </defs>
     <use xlink:href="#DejaVuSans-36"/>
    </g>
   </g>
   <g id="text_3">
    <!-- 10 -->
    <g transform="translate(1016.899218 734.61349)scale(0.2 -0.2)">
     <defs>
      <path d="M 2034 4250 
Q 1547 4250 1301 3770 
Q 1056 3291 1056 2328 
Q 1056 1369 1301 889 
Q 1547 409 2034 409 
Q 2525 409 2770 889 
Q 3016 1369 3016 2328 
Q 3016 3291 2770 3770 
Q 2525 4250 2034 4250 
z
M 2034 4750 
Q 2819 4750 3233 4129 
Q 3647 3509 3647 2328 
Q 3647 1150 3233 529 
Q 2819 -91 2034 -91 
Q 1250 -91 836 529 
Q 422 1150 422 2328 
Q 422 3509 836 4129 
Q 1250 4750 2034 4750 
z
" id="DejaVuSans-30" transform="scale(0.015625)"/>
     </defs>
     <use xlink:href="#DejaVuSans-31"/>
     <use x="63.623047" xlink:href="#DejaVuSans-30"/>
    </g>
   </g>
   <g id="text_4">
    <!-- 1 -->
    <g transform="translate(1236.638622 1049.511684)scale(0.2 -0.2)">
     <use xlink:href="#DejaVuSans-31"/>
    </g>
   </g>
   <g id="text_5">
    <!-- 1 -->
    <g transform="translate(1085.203194 1013.787715)scale(0.2 -0.2)">
     <use xlink:href="#DejaVuSans-31"/>
    </g>
   </g>
   <g id="text_6">
    <!-- 1 -->
    <g transform="translate(1247.377536 918.574856)scale(0.2 -0.2)">
     <use xlink:href="#DejaVuSans-31"/>
    </g>
   </g>
   <g id="text_7">
    <!-- 1 -->
    <g transform="translate(1118.007571 893.409923)scale(0.2 -0.2)">
     <use xlink:href="#DejaVuSans-31"/>
    </g>
   </g>
   <g id="text_8">
    <!-- $M. incognita$ -->
    <g transform="translate(168.078133 108.774656)scale(0.25 -0.25)">
     <defs>
      <path d="M 1081 4666 
L 2028 4666 
L 2572 1522 
L 4378 4666 
L 5350 4666 
L 4441 0 
L 3828 0 
L 4622 4091 
L 2791 897 
L 2175 897 
L 1581 4103 
L 788 0 
L 172 0 
L 1081 4666 
z
" id="DejaVuSans-Oblique-4d" transform="scale(0.015625)"/>
      <path d="M 684 794 
L 1344 794 
L 1344 0 
L 684 0 
L 684 794 
z
" id="DejaVuSans-2e" transform="scale(0.015625)"/>
      <path d="M 1172 4863 
L 1747 4863 
L 1606 4134 
L 1031 4134 
L 1172 4863 
z
M 909 3500 
L 1484 3500 
L 800 0 
L 225 0 
L 909 3500 
z
" id="DejaVuSans-Oblique-69" transform="scale(0.015625)"/>
      <path d="M 3566 2113 
L 3156 0 
L 2578 0 
L 2988 2091 
Q 3016 2238 3031 2350 
Q 3047 2463 3047 2528 
Q 3047 2791 2881 2937 
Q 2716 3084 2419 3084 
Q 1956 3084 1622 2776 
Q 1288 2469 1184 1941 
L 800 0 
L 225 0 
L 903 3500 
L 1478 3500 
L 1363 2950 
Q 1603 3253 1940 3418 
Q 2278 3584 2650 3584 
Q 3113 3584 3367 3334 
Q 3622 3084 3622 2631 
Q 3622 2519 3608 2391 
Q 3594 2263 3566 2113 
z
" id="DejaVuSans-Oblique-6e" transform="scale(0.015625)"/>
      <path d="M 3431 3366 
L 3316 2797 
Q 3109 2947 2876 3022 
Q 2644 3097 2394 3097 
Q 2119 3097 1870 3000 
Q 1622 2903 1453 2725 
Q 1184 2453 1037 2087 
Q 891 1722 891 1331 
Q 891 859 1127 628 
Q 1363 397 1844 397 
Q 2081 397 2348 469 
Q 2616 541 2906 684 
L 2797 116 
Q 2547 13 2283 -39 
Q 2019 -91 1741 -91 
Q 1044 -91 669 257 
Q 294 606 294 1253 
Q 294 1797 489 2255 
Q 684 2713 1069 3078 
Q 1331 3328 1684 3456 
Q 2038 3584 2456 3584 
Q 2700 3584 2940 3529 
Q 3181 3475 3431 3366 
z
" id="DejaVuSans-Oblique-63" transform="scale(0.015625)"/>
      <path d="M 1625 -91 
Q 1009 -91 651 289 
Q 294 669 294 1325 
Q 294 1706 417 2101 
Q 541 2497 738 2766 
Q 1047 3184 1428 3384 
Q 1809 3584 2291 3584 
Q 2888 3584 3255 3212 
Q 3622 2841 3622 2241 
Q 3622 1825 3500 1412 
Q 3378 1000 3181 728 
Q 2875 309 2494 109 
Q 2113 -91 1625 -91 
z
M 891 1344 
Q 891 869 1089 633 
Q 1288 397 1691 397 
Q 2269 397 2648 901 
Q 3028 1406 3028 2181 
Q 3028 2634 2825 2865 
Q 2622 3097 2228 3097 
Q 1903 3097 1650 2945 
Q 1397 2794 1197 2484 
Q 1050 2253 970 1956 
Q 891 1659 891 1344 
z
" id="DejaVuSans-Oblique-6f" transform="scale(0.015625)"/>
      <path d="M 3816 3500 
L 3219 434 
Q 3047 -456 2561 -893 
Q 2075 -1331 1253 -1331 
Q 950 -1331 690 -1286 
Q 431 -1241 206 -1147 
L 313 -588 
Q 525 -725 762 -790 
Q 1000 -856 1269 -856 
Q 1816 -856 2167 -557 
Q 2519 -259 2631 300 
L 2681 563 
Q 2441 288 2122 144 
Q 1803 0 1434 0 
Q 903 0 598 351 
Q 294 703 294 1319 
Q 294 1803 478 2267 
Q 663 2731 997 3091 
Q 1219 3328 1514 3456 
Q 1809 3584 2131 3584 
Q 2484 3584 2746 3420 
Q 3009 3256 3138 2956 
L 3238 3500 
L 3816 3500 
z
M 2950 2216 
Q 2950 2641 2750 2872 
Q 2550 3103 2181 3103 
Q 1953 3103 1747 3012 
Q 1541 2922 1394 2759 
Q 1156 2491 1023 2127 
Q 891 1763 891 1375 
Q 891 944 1092 712 
Q 1294 481 1672 481 
Q 2219 481 2584 976 
Q 2950 1472 2950 2216 
z
" id="DejaVuSans-Oblique-67" transform="scale(0.015625)"/>
      <path d="M 2706 3500 
L 2619 3053 
L 1472 3053 
L 1100 1153 
Q 1081 1047 1072 975 
Q 1063 903 1063 863 
Q 1063 663 1183 572 
Q 1303 481 1569 481 
L 2150 481 
L 2053 0 
L 1503 0 
Q 991 0 739 200 
Q 488 400 488 806 
Q 488 878 497 964 
Q 506 1050 525 1153 
L 897 3053 
L 409 3053 
L 500 3500 
L 978 3500 
L 1172 4494 
L 1747 4494 
L 1556 3500 
L 2706 3500 
z
" id="DejaVuSans-Oblique-74" transform="scale(0.015625)"/>
      <path d="M 3438 1997 
L 3047 0 
L 2472 0 
L 2578 531 
Q 2325 219 2001 64 
Q 1678 -91 1281 -91 
Q 834 -91 548 182 
Q 263 456 263 884 
Q 263 1497 752 1853 
Q 1241 2209 2100 2209 
L 2900 2209 
L 2931 2363 
Q 2938 2388 2941 2417 
Q 2944 2447 2944 2509 
Q 2944 2788 2717 2942 
Q 2491 3097 2081 3097 
Q 1800 3097 1504 3025 
Q 1209 2953 897 2809 
L 997 3341 
Q 1322 3463 1633 3523 
Q 1944 3584 2234 3584 
Q 2853 3584 3176 3315 
Q 3500 3047 3500 2534 
Q 3500 2431 3484 2292 
Q 3469 2153 3438 1997 
z
M 2816 1759 
L 2241 1759 
Q 1534 1759 1195 1570 
Q 856 1381 856 984 
Q 856 709 1029 553 
Q 1203 397 1509 397 
Q 1978 397 2328 733 
Q 2678 1069 2791 1631 
L 2816 1759 
z
" id="DejaVuSans-Oblique-61" transform="scale(0.015625)"/>
     </defs>
     <use transform="translate(0 0.015625)" xlink:href="#DejaVuSans-Oblique-4d"/>
     <use transform="translate(86.279297 0.015625)" xlink:href="#DejaVuSans-2e"/>
     <use transform="translate(137.548828 0.015625)" xlink:href="#DejaVuSans-Oblique-69"/>
     <use transform="translate(165.332031 0.015625)" xlink:href="#DejaVuSans-Oblique-6e"/>
     <use transform="translate(228.710938 0.015625)" xlink:href="#DejaVuSans-Oblique-63"/>
     <use transform="translate(283.691406 0.015625)" xlink:href="#DejaVuSans-Oblique-6f"/>
     <use transform="translate(344.873047 0.015625)" xlink:href="#DejaVuSans-Oblique-67"/>
     <use transform="translate(408.349609 0.015625)" xlink:href="#DejaVuSans-Oblique-6e"/>
     <use transform="translate(471.728516 0.015625)" xlink:href="#DejaVuSans-Oblique-69"/>
     <use transform="translate(499.511719 0.015625)" xlink:href="#DejaVuSans-Oblique-74"/>
     <use transform="translate(538.720703 0.015625)" xlink:href="#DejaVuSans-Oblique-61"/>
    </g>
   </g>
   <g id="text_9">
    <!-- $M. arenaria$ -->
    <g transform="translate(1299.776276 464.483474)scale(0.25 -0.25)">
     <defs>
      <path d="M 2853 2969 
Q 2766 3016 2653 3041 
Q 2541 3066 2413 3066 
Q 1953 3066 1609 2717 
Q 1266 2369 1153 1784 
L 800 0 
L 225 0 
L 909 3500 
L 1484 3500 
L 1375 2956 
Q 1603 3259 1920 3421 
Q 2238 3584 2597 3584 
Q 2691 3584 2781 3573 
Q 2872 3563 2963 3538 
L 2853 2969 
z
" id="DejaVuSans-Oblique-72" transform="scale(0.015625)"/>
      <path d="M 3078 2063 
Q 3088 2113 3092 2166 
Q 3097 2219 3097 2272 
Q 3097 2653 2873 2875 
Q 2650 3097 2266 3097 
Q 1838 3097 1509 2826 
Q 1181 2556 1013 2059 
L 3078 2063 
z
M 3578 1613 
L 903 1613 
Q 884 1494 878 1425 
Q 872 1356 872 1306 
Q 872 872 1139 634 
Q 1406 397 1894 397 
Q 2269 397 2603 481 
Q 2938 566 3225 728 
L 3116 159 
Q 2806 34 2476 -28 
Q 2147 -91 1806 -91 
Q 1078 -91 686 257 
Q 294 606 294 1247 
Q 294 1794 489 2264 
Q 684 2734 1063 3103 
Q 1306 3334 1642 3459 
Q 1978 3584 2356 3584 
Q 2950 3584 3301 3228 
Q 3653 2872 3653 2272 
Q 3653 2128 3634 1964 
Q 3616 1800 3578 1613 
z
" id="DejaVuSans-Oblique-65" transform="scale(0.015625)"/>
     </defs>
     <use transform="translate(0 0.015625)" xlink:href="#DejaVuSans-Oblique-4d"/>
     <use transform="translate(86.279297 0.015625)" xlink:href="#DejaVuSans-2e"/>
     <use transform="translate(137.548828 0.015625)" xlink:href="#DejaVuSans-Oblique-61"/>
     <use transform="translate(198.828125 0.015625)" xlink:href="#DejaVuSans-Oblique-72"/>
     <use transform="translate(239.941406 0.015625)" xlink:href="#DejaVuSans-Oblique-65"/>
     <use transform="translate(301.464844 0.015625)" xlink:href="#DejaVuSans-Oblique-6e"/>
     <use transform="translate(364.84375 0.015625)" xlink:href="#DejaVuSans-Oblique-61"/>
     <use transform="translate(426.123047 0.015625)" xlink:href="#DejaVuSans-Oblique-72"/>
     <use transform="translate(467.236328 0.015625)" xlink:href="#DejaVuSans-Oblique-69"/>
     <use transform="translate(495.019531 0.015625)" xlink:href="#DejaVuSans-Oblique-61"/>
    </g>
   </g>
   <g id="text_10">
    <!-- $M. javanica$ -->
    <g transform="translate(1109.639999 1117.199144)scale(0.25 -0.25)">
     <defs>
      <path d="M 928 3500 
L 1503 3500 
L 813 -63 
L 809 -78 
Q 694 -675 544 -897 
Q 403 -1106 132 -1218 
Q -138 -1331 -506 -1331 
L -722 -1331 
L -628 -844 
L -481 -844 
Q -144 -844 -1 -703 
Q 141 -563 238 -63 
L 928 3500 
z
M 1197 4863 
L 1772 4863 
L 1631 4134 
L 1056 4134 
L 1197 4863 
z
" id="DejaVuSans-Oblique-6a" transform="scale(0.015625)"/>
      <path d="M 459 3500 
L 1069 3500 
L 1581 525 
L 3256 3500 
L 3866 3500 
L 1875 0 
L 1100 0 
L 459 3500 
z
" id="DejaVuSans-Oblique-76" transform="scale(0.015625)"/>
     </defs>
     <use transform="translate(0 0.015625)" xlink:href="#DejaVuSans-Oblique-4d"/>
     <use transform="translate(86.279297 0.015625)" xlink:href="#DejaVuSans-2e"/>
     <use transform="translate(137.548828 0.015625)" xlink:href="#DejaVuSans-Oblique-6a"/>
     <use transform="translate(165.332031 0.015625)" xlink:href="#DejaVuSans-Oblique-61"/>
     <use transform="translate(226.611328 0.015625)" xlink:href="#DejaVuSans-Oblique-76"/>
     <use transform="translate(285.791016 0.015625)" xlink:href="#DejaVuSans-Oblique-61"/>
     <use transform="translate(347.070312 0.015625)" xlink:href="#DejaVuSans-Oblique-6e"/>
     <use transform="translate(410.449219 0.015625)" xlink:href="#DejaVuSans-Oblique-69"/>
     <use transform="translate(438.232422 0.015625)" xlink:href="#DejaVuSans-Oblique-63"/>
     <use transform="translate(493.212891 0.015625)" xlink:href="#DejaVuSans-Oblique-61"/>
    </g>
   </g>
  </g>
 </g>
 <defs>
  <clipPath id="pe340f0019c">
   <rect height="1447.38161" width="1640" x="-100" y="-3.690805"/>
  </clipPath>
 </defs>
</svg>
